PathFileType	4	(X/Y/Z)	./resultDataOpenSim/trcMotMarkerGrf/sub10/qtm-01-07.trc
DataRate	CameraRate	NumFrames	NumMarkers	Units	OrigDataRate	OrigDataStartFrame	OrigNumFrames
250.000000	250.000000	8	24	m	250.000000	1	464
Frame#	Time	L.Toe.Tip			R.Toe.Tip			L.Ankle.Lat			R.Ankle.Lat			L.Ankle.Med			R.Ankle.Med			L.Heel			R.Heel			L.Knee.Lat			R.Knee.Lat			L.Knee.Med			R.Knee.Med			L.Thigh.Upper			R.Thigh.Upper			L.ASIS			R.ASIS			V.Sacral			L.Acromium			R.Acromium			C7			L.Elbow			R.Elbow			L.Wrist.Lat			R.Wrist.Lat
		X1	Y1	Z1	X2	Y2	Z2	X3	Y3	Z3	X4	Y4	Z4	X5	Y5	Z5	X6	Y6	Z6	X7	Y7	Z7	X8	Y8	Z8	X9	Y9	Z9	X10	Y10	Z10	X11	Y11	Z11	X12	Y12	Z12	X13	Y13	Z13	X14	Y14	Z14	X15	Y15	Z15	X16	Y16	Z16	X17	Y17	Z17	X18	Y18	Z18	X19	Y19	Z19	X20	Y20	Z20	X21	Y21	Z21	X22	Y22	Z22	X23	Y23	Z23	X24	Y24	Z24

1	0	-1.4983161	0.038592479	-0.20125509	-0.99559565	0.064103344	-0.021475086	-1.6228486	0.067804355	-0.24951413	-1.138353	0.061780721	0.0066911171	-1.6294201	0.088372047	-0.16553343	-1.1154197	0.095742278	-0.072046599	-1.6943717	0.042499248	-0.22587912	-1.1767485	0.032217305	-0.045561325	-1.5016805	0.43488952	-0.26310694	-1.1965306	0.46017533	0.03463498	-1.5145797	0.41214649	-0.14269362	-1.1796488	0.46732237	-0.092426698	-1.402892	0.8194913	-0.30498986	-1.3661899	0.83724995	0.080319973	-1.3339427	0.92391458	-0.23964492	-1.308693	0.92936171	0.0055415662	-1.5219574	0.93770662	-0.097775295	-1.3499419	1.3863587	-0.26883591	-1.3985223	1.3878691	0.05597847	-1.4573198	1.4230388	-0.12006908	-1.3927749	1.0364782	-0.3261739	-1.5482211	1.0751537	0.071951108	-1.1873872	0.89563423	-0.27911206	-1.4725142	0.84953644	0.13681965
2	0.004	-1.4984287	0.038601129	-0.2011859	-0.97971792	0.066025375	-0.020883453	-1.6229518	0.068270115	-0.24879891	-1.1216299	0.062223697	0.010310351	-1.6290158	0.088789245	-0.16491723	-1.1007333	0.096096441	-0.069019187	-1.6951087	0.043382862	-0.22496226	-1.1606906	0.031875291	-0.041283151	-1.4989415	0.43448474	-0.2627428	-1.1907255	0.45887092	0.036608967	-1.5115067	0.41168193	-0.14220074	-1.1745179	0.46537031	-0.090665096	-1.3989459	0.81880498	-0.30458171	-1.3606475	0.83582467	0.080880358	-1.3293295	0.92304205	-0.23900258	-1.3031116	0.92817475	0.0060061968	-1.5167094	0.9361686	-0.096405393	-1.3447304	1.3847914	-0.26855741	-1.3928843	1.3865239	0.056550114	-1.4518252	1.421919	-0.11951616	-1.3876667	1.0350593	-0.32582123	-1.5433238	1.0740429	0.072491552	-1.1829728	0.89413885	-0.2783574	-1.4683704	0.84831813	0.13717241
3	0.008	-1.4985044	0.038622029	-0.20114124	-0.96408308	0.068178626	-0.020280645	-1.6229998	0.06878111	-0.24813996	-1.1053189	0.062722481	0.013868346	-1.6286035	0.089253716	-0.16425384	-1.0862891	0.096510983	-0.066026391	-1.6952489	0.044348394	-0.22395203	-1.1447518	0.031575158	-0.03691648	-1.4961965	0.4340757	-0.26228448	-1.1849935	0.45750803	0.038600234	-1.5082622	0.41122981	-0.14171351	-1.1694445	0.46332794	-0.088916893	-1.3949784	0.81812584	-0.30418653	-1.3551253	0.83435708	0.081442511	-1.3248605	0.92214673	-0.23842281	-1.2974458	0.92696406	0.0064850702	-1.5112477	0.93460872	-0.094789506	-1.3394768	1.3832138	-0.26823709	-1.3869914	1.3851926	0.057167097	-1.4463547	1.4207763	-0.11907917	-1.3826851	1.0335909	-0.32554439	-1.5384268	1.0729492	0.073106909	-1.1785041	0.89262024	-0.27758642	-1.4641378	0.84712946	0.13754814
4	0.012	-1.4985175	0.038664238	-0.2011441	-0.94885889	0.070686959	-0.019652373	-1.6229821	0.069368252	-0.2475475	-1.0894231	0.063336518	0.017381299	-1.6281766	0.089783197	-0.16353215	-1.0722155	0.097033922	-0.063073273	-1.6949415	0.045400198	-0.22286227	-1.1289841	0.031305281	-0.032374398	-1.4934229	0.43367015	-0.26170794	-1.1793162	0.45607963	0.040619676	-1.5048513	0.41075	-0.14118986	-1.1644557	0.46115583	-0.087178434	-1.3909796	0.81745231	-0.30378764	-1.3495807	0.83282544	0.081999506	-1.3206432	0.92120381	-0.23797924	-1.2916517	0.92572039	0.0069845368	-1.5056013	0.93301944	-0.092977177	-1.3341552	1.3816188	-0.26786486	-1.3808813	1.383873	0.057816534	-1.4408985	1.4196074	-0.11875099	-1.3778208	1.0320588	-0.32533363	-1.5334727	1.0718605	0.073832793	-1.1739343	0.8910612	-0.2767734	-1.4597982	0.84597045	0.13794803
5	0.016	-1.4984633	0.038727919	-0.20120414	-0.93414397	0.073561022	-0.018960681	-1.6229326	0.070040017	-0.24699218	-1.0737543	0.064109923	0.020891339	-1.6277367	0.090371345	-0.16277122	-1.0585759	0.097684589	-0.060162032	-1.6946275	0.046511583	-0.22175019	-1.1134322	0.031022304	-0.027603457	-1.4906017	0.43327915	-0.26104145	-1.1736226	0.45462629	0.042668883	-1.5013492	0.41021141	-0.1405755	-1.1595529	0.45887295	-0.085438544	-1.3869575	0.81678425	-0.30336347	-1.3439618	0.83122953	0.082540161	-1.3165915	0.92023591	-0.23765102	-1.2857632	0.92445297	0.0074958533	-1.4999715	0.93140154	-0.091215393	-1.3287702	1.3800092	-0.26745811	-1.3748171	1.3825583	0.058440614	-1.4354409	1.4184272	-0.11844386	-1.3729899	1.0304783	-0.32512637	-1.5284107	1.0707622	0.074672704	-1.1693001	0.88944223	-0.27592149	-1.4554116	0.84482225	0.13836046
6	0.02	-1.4983562	0.038802114	-0.20131039	-0.91995014	0.076762882	-0.01813723	-1.6228942	0.070797404	-0.24642405	-1.058321	0.065101985	0.024400126	-1.6272927	0.091008198	-0.16199455	-1.0454165	0.098440979	-0.057316246	-1.6944701	0.047700192	-0.22063645	-1.0981787	0.030723968	-0.022657433	-1.4877317	0.43290634	-0.26032028	-1.167875	0.45318787	0.044732675	-1.4978027	0.40965093	-0.13985161	-1.1547187	0.45651988	-0.083684904	-1.3829128	0.81612744	-0.30290871	-1.3382442	0.82957699	0.08306415	-1.3124221	0.91931369	-0.23730624	-1.2798657	0.92316817	0.0079877167	-1.4944604	0.92974468	-0.089636583	-1.3233283	1.3783894	-0.26703296	-1.3689516	1.3812527	0.059007434	-1.429972	1.4172457	-0.11808948	-1.3681273	1.0288652	-0.32488205	-1.523201	1.0696879	0.075651813	-1.1647069	0.88773484	-0.275081	-1.4510325	0.84367209	0.13877658
7	0.024	-1.4982189	0.03886695	-0.20143353	-0.90625727	0.080232808	-0.017115437	-1.6228829	0.071635411	-0.24579459	-1.0433674	0.06638927	0.027872731	-1.6268408	0.091683731	-0.16120905	-1.0327756	0.099253127	-0.054564167	-1.6944179	0.048998167	-0.21951885	-1.083355	0.030478902	-0.017756035	-1.4848094	0.43255325	-0.25957271	-1.1620162	0.45181422	0.046801708	-1.494227	0.40913663	-0.13903806	-1.1499316	0.45413715	-0.081903409	-1.3788368	0.81548384	-0.30242933	-1.3324185	0.82787794	0.08358077	-1.3079289	0.91848403	-0.23684859	-1.2740551	0.92185445	0.00841225	-1.4890413	0.92804965	-0.088211702	-1.3178314	1.3767606	-0.26659267	-1.3632299	1.379967	0.059536509	-1.4244933	1.4160656	-0.11768546	-1.3632129	1.0272303	-0.32459636	-1.5177624	1.0687492	0.076847781	-1.1602217	0.88592358	-0.27429901	-1.4466577	0.8425206	0.13919186
8	0.028	-1.4980745	0.03890131	-0.20153676	-0.89305454	0.08390189	-0.015855495	-1.6228727	0.072530102	-0.24508889	-1.0290829	0.067979503	0.031279265	-1.6263552	0.092387773	-0.16040193	-1.0206559	0.10007863	-0.051909444	-1.6943905	0.050395503	-0.21839146	-1.0690686	0.030372027	-0.013159148	-1.4818029	0.43222159	-0.25882094	-1.1558163	0.45061447	0.048928532	-1.4905536	0.40870341	-0.13817859	-1.145172	0.45175867	-0.08007904	-1.37473	0.81484537	-0.3019335	-1.3264717	0.82614329	0.084097305	-1.3031872	0.91772305	-0.23631889	-1.2683821	0.9204991	0.0087415251	-1.4836975	0.92635077	-0.086903569	-1.3122931	1.3751233	-0.26613631	-1.3575421	1.3787007	0.060066918	-1.4190153	1.4148905	-0.11727299	-1.3582483	1.025587	-0.32427156	-1.5120231	1.0680707	0.078319514	-1.1558139	0.88401682	-0.27357027	-1.4422491	0.84137441	0.13960896
